HIERARCHY
ROOT Hips
{
	OFFSET 0.000000 0.000000 0.000000
	CHANNELS 6 Xposition Yposition Zposition Zrotation Yrotation Xrotation 
	JOINT LHipJoint
	{
		OFFSET 0.000000 0.000000 0.000000
		CHANNELS 3 Zrotation Yrotation Xrotation
		JOINT LeftUpLeg
		{
			OFFSET 1.363060 -1.794630 0.839290
			CHANNELS 3 Zrotation Yrotation Xrotation
			JOINT LeftLeg
			{
				OFFSET 2.448110 -6.726130 0.000000
				CHANNELS 3 Zrotation Yrotation Xrotation
				JOINT LeftFoot
				{
					OFFSET 2.562200 -7.039590 0.000000
					CHANNELS 3 Zrotation Yrotation Xrotation
					JOINT LeftToeBase
					{
						OFFSET 0.157640 -0.433110 2.322550
						CHANNELS 3 Zrotation Yrotation Xrotation
						End Site
						{
							OFFSET 0.000000 0.000000 0.000000
						}
					}
				}
			}
		}
	}
	JOINT RHipJoint
	{
		OFFSET 0.000000 0.000000 0.000000
		CHANNELS 3 Zrotation Yrotation Xrotation
		JOINT RightUpLeg
		{
			OFFSET -1.305520 -1.794630 0.839290
			CHANNELS 3 Zrotation Yrotation Xrotation
			JOINT RightLeg
			{
				OFFSET -2.542530 -6.985550 0.000000
				CHANNELS 3 Zrotation Yrotation Xrotation
				JOINT RightFoot
				{
					OFFSET -2.568260 -7.056230 0.000000
					CHANNELS 3 Zrotation Yrotation Xrotation
					JOINT RightToeBase
					{
						OFFSET -0.164730 -0.452590 2.363150
						CHANNELS 3 Zrotation Yrotation Xrotation
						End Site
						{
							OFFSET 0.000000 0.000000 0.000000
						}
					}
				}
			}
		}
	}
	JOINT LowerBack
	{
		OFFSET 0.000000 0.000000 0.000000
		CHANNELS 3 Zrotation Yrotation Xrotation
		JOINT Spine
		{
			OFFSET 0.028270 2.035590 -0.193380
			CHANNELS 3 Zrotation Yrotation Xrotation
			JOINT Spine1
			{
				OFFSET 0.056720 2.048850 -0.042750
				CHANNELS 3 Zrotation Yrotation Xrotation
				JOINT Neck
				{
					OFFSET 0.000000 0.000000 0.000000
					CHANNELS 3 Zrotation Yrotation Xrotation
					JOINT Neck1
					{
						OFFSET -0.054170 1.746240 0.172020
						CHANNELS 3 Zrotation Yrotation Xrotation
						JOINT Head
						{
							OFFSET 0.104070 1.761360 -0.123970
							CHANNELS 3 Zrotation Yrotation Xrotation
							End Site
							{
								OFFSET 0.000000 0.000000 0.000000
							}
						}
					}
				}
				JOINT LeftShoulder
				{
					OFFSET 0.000000 0.000000 0.000000
					CHANNELS 3 Zrotation Yrotation Xrotation
					JOINT LeftArm
					{
						OFFSET 3.362410 1.200890 -0.311210
						CHANNELS 3 Zrotation Yrotation Xrotation
						JOINT LeftForeArm
						{
							OFFSET 4.983000 -0.000000 -0.000000
							CHANNELS 3 Zrotation Yrotation Xrotation
							JOINT LeftHand
							{
								OFFSET 3.483560 -0.000000 -0.000000
								CHANNELS 3 Zrotation Yrotation Xrotation
								JOINT LeftFingerBase
								{
									OFFSET 0.000000 0.000000 0.000000
									CHANNELS 3 Zrotation Yrotation Xrotation
									JOINT LeftHandIndex1
									{
										OFFSET 0.715260 -0.000000 -0.000000
										CHANNELS 3 Zrotation Yrotation Xrotation
										End Site
										{
											OFFSET 0.000000 0.000000 0.000000
										}
									}
								}
								JOINT LThumb
								{
									OFFSET 0.000000 0.000000 0.000000
									CHANNELS 3 Zrotation Yrotation Xrotation
									End Site
									{
										OFFSET 0.000000 0.000000 0.000000
									}
								}
							}
						}
					}
				}
				JOINT RightShoulder
				{
					OFFSET 0.000000 0.000000 0.000000
					CHANNELS 3 Zrotation Yrotation Xrotation
					JOINT RightArm
					{
						OFFSET -3.136600 1.374050 -0.404650
						CHANNELS 3 Zrotation Yrotation Xrotation
						JOINT RightForeArm
						{
							OFFSET -5.241900 -0.000000 -0.000000
							CHANNELS 3 Zrotation Yrotation Xrotation
							JOINT RightHand
							{
								OFFSET -3.444170 -0.000000 -0.000000
								CHANNELS 3 Zrotation Yrotation Xrotation
								JOINT RightFingerBase
								{
									OFFSET 0.000000 0.000000 0.000000
									CHANNELS 3 Zrotation Yrotation Xrotation
									JOINT RightHandIndex1
									{
										OFFSET -0.622530 -0.000000 -0.000000
										CHANNELS 3 Zrotation Yrotation Xrotation
										End Site
										{
											OFFSET 0.000000 0.000000 0.000000
										}
									}
								}
								JOINT RThumb
								{
									OFFSET 0.000000 0.000000 0.000000
									CHANNELS 3 Zrotation Yrotation Xrotation
									End Site
									{
										OFFSET 0.000000 0.000000 0.000000
									}
								}
							}
						}
					}
				}
			}
		}
	}
}
MOTION
Frames: 5
Frame Time: 0.008333
0.668909 17.126825 2.719068 -10.002646 -75.950691 21.994281 -10.491629 0.408547 2.257566 -8.606669 -8.785637 -22.271761 -1.162705 0.717373 28.934890 2.169381 10.659222 -13.628592 -1.157100 0.000000 -34.190901 9.861906 -0.622633 -0.972490 1.289057 -2.908822 -21.436825 -0.452229 -2.571256 41.096094 -3.601582 -20.535385 7.346529 -6.044199 0.000000 -70.379400 -3.291471 -1.836860 -0.226590 -1.148152 -1.673428 -2.851533 -5.214274 -1.687994 0.258164 7.528041 -13.807257 -7.659407 -0.885288 -0.065872 0.010534 0.000000 0.000000 0.000000 2.739276 9.135940 0.910278 -42.867642 9.442740 36.757328 -0.673630 -79.201551 0.014723 -8.101678 -8.720289 0.637589 0.072676 0.182230 0.000000 0.000000 0.000000 0.000000 0.000000 0.000000 0.000000 3.359959 -9.451645 0.415716 57.415887 -12.399751 38.075673 0.928481 65.563187 0.006130 -0.329086 5.717884 -0.018636 0.052556 -0.109634 0.000000 0.000000 0.000000 0.000000 0.000000 0.000000 0.000000 
0.683767 17.129690 2.743262 -10.771310 -75.433564 22.630219 -10.538131 0.366027 2.254630 -8.301671 -8.895070 -22.173940 -1.143893 0.720505 28.950701 2.124519 10.410262 -13.639012 -1.142000 0.000001 -34.230900 9.852688 -0.584735 -0.988945 1.566305 -2.660223 -22.574490 -0.533805 -2.723920 43.505546 -3.615403 -20.635817 7.312262 -6.012400 -0.000000 -68.845800 -3.252380 -1.875406 -0.161474 -1.151900 -1.716247 -2.840794 -5.273742 -1.728585 0.235640 7.607456 -13.797594 -7.634092 -0.889039 -0.066399 0.015153 0.000000 0.000000 0.000000 2.845933 8.937575 0.919769 -42.569744 9.063258 36.947750 -0.647889 -79.514783 0.014771 -8.115615 -8.740785 0.640666 0.075532 0.185871 0.000000 0.000000 0.000000 0.000000 0.000000 0.000000 0.000000 3.422012 -9.469741 0.419387 57.646561 -12.595530 38.189257 0.926582 65.502489 0.006050 -0.294603 5.743702 -0.016946 0.051036 -0.109314 0.000000 0.000000 0.000000 0.000000 0.000000 0.000000 0.000000 
0.699365 17.132588 2.765904 -11.497916 -74.895813 23.213820 -10.583202 0.323918 2.263136 -7.982958 -9.058700 -22.067114 -1.120634 0.724064 28.968990 2.088226 10.209670 -13.656263 -1.131300 0.000000 -34.227200 9.844261 -0.544077 -1.022668 1.866602 -2.495294 -23.729022 -0.610682 -2.874815 45.886039 -3.624291 -20.698528 7.120487 -5.920200 0.000000 -67.384500 -3.211765 -1.917003 -0.090563 -1.155150 -1.762294 -2.829164 -5.332040 -1.772449 0.211566 7.678423 -13.790944 -7.602306 -0.891015 -0.066889 0.021505 0.000000 0.000000 0.000000 2.960018 8.704761 0.930385 -42.260828 8.666873 37.127874 -0.623215 -79.809916 0.014809 -8.134806 -8.761965 0.644142 0.078536 0.189530 0.000000 0.000000 0.000000 0.000000 0.000000 0.000000 0.000000 3.465656 -9.493041 0.423051 57.899691 -12.810671 38.278740 0.923889 65.445076 0.005945 -0.269562 5.756976 -0.015555 0.049572 -0.108939 0.000000 0.000000 0.000000 0.000000 0.000000 0.000000 0.000000 
0.715774 17.135625 2.787177 -12.192691 -74.337361 23.754576 -10.627551 0.281989 2.283110 -7.647244 -9.279770 -21.948970 -1.092602 0.728288 28.989724 2.060548 10.058692 -13.680285 -1.125200 0.000000 -34.177200 9.835620 -0.501393 -1.074323 2.192102 -2.412006 -24.893104 -0.684079 -3.024160 48.221222 -3.627719 -20.724403 6.800885 -5.777800 -0.000000 -66.073600 -3.164993 -1.960629 -0.013036 -1.156929 -1.810811 -2.816440 -5.388562 -1.818831 0.186230 7.739357 -13.787319 -7.562824 -0.891450 -0.067384 0.029934 0.000000 0.000000 0.000000 3.080804 8.434959 0.941801 -41.947167 8.252667 37.292427 -0.600154 -80.078132 0.014840 -8.158883 -8.783767 0.648116 0.081655 0.193169 0.000000 0.000000 0.000000 0.000000 0.000000 0.000000 0.000000 3.490067 -9.521618 0.426793 58.172662 -13.043810 38.343342 0.920491 65.389302 0.005816 -0.255539 5.756931 -0.014764 0.048189 -0.108483 0.000000 0.000000 0.000000 0.000000 0.000000 0.000000 0.000000 
0.733087 17.138918 2.807198 -12.856426 -73.760149 24.252107 -10.671060 0.240195 2.314060 -7.295855 -9.559942 -21.815790 -1.059915 0.733124 29.009583 2.041361 9.957716 -13.709165 -1.123500 0.000000 -34.080800 9.826549 -0.456710 -1.143395 2.539331 -2.405871 -26.061775 -0.755264 -3.172000 50.496641 -3.624965 -20.712212 6.390813 -5.597400 0.000000 -64.992101 -3.112168 -2.005427 0.071428 -1.157293 -1.860926 -2.802433 -5.443022 -1.866858 0.160092 7.790749 -13.786813 -7.514817 -0.890706 -0.067928 0.040658 0.000000 0.000000 0.000000 3.209812 8.127695 0.953652 -41.634106 7.818679 37.436952 -0.579163 -80.310928 0.014863 -8.187570 -8.805438 0.652491 0.084862 0.196742 0.000000 0.000000 0.000000 0.000000 0.000000 0.000000 0.000000 3.497660 -9.555582 0.430458 58.461126 -13.292426 38.385000 0.916362 65.335185 0.005662 -0.252437 5.743574 -0.014574 0.046881 -0.107940 0.000000 0.000000 0.000000 0.000000 0.000000 0.000000 0.000000 
